HIERARCHY
ROOT Hips
{
	OFFSET -19.934631 -33.524395 87.965111
	CHANNELS 6 Xposition Yposition Zposition Zrotation Yrotation Xrotation
	JOINT Spine
	{
		OFFSET 0.000000 2.080107 8.814247
		CHANNELS 6 Xposition Yposition Zposition Zrotation Yrotation Xrotation
		JOINT Spine1
		{
			OFFSET 0.000000 0.000000 8.844139
			CHANNELS 6 Xposition Yposition Zposition Zrotation Yrotation Xrotation
			JOINT Spine2
			{
				OFFSET 0.000000 0.000002 11.682266
				CHANNELS 6 Xposition Yposition Zposition Zrotation Yrotation Xrotation
				JOINT Spine3
				{
					OFFSET 0.000000 0.000000 11.746696
					CHANNELS 6 Xposition Yposition Zposition Zrotation Yrotation Xrotation
					JOINT Neck
					{
						OFFSET 0.000000 0.000002 17.658264
						CHANNELS 6 Xposition Yposition Zposition Zrotation Yrotation Xrotation
						JOINT Neck1
						{
							OFFSET 0.000000 0.000000 5.101517
							CHANNELS 6 Xposition Yposition Zposition Zrotation Yrotation Xrotation
							JOINT Head
							{
								OFFSET 0.000000 0.000000 5.101517
								CHANNELS 6 Xposition Yposition Zposition Zrotation Yrotation Xrotation
								JOINT HeadEnd
								{
									OFFSET 0.000000 0.000002 11.655090
									CHANNELS 6 Xposition Yposition Zposition Zrotation Yrotation Xrotation
									End Site
									{
										OFFSET 0.000000 0.000000 0.100006
									}
								}
							}
						}
					}
					JOINT RightShoulder
					{
						OFFSET -2.625389 0.000002 11.175217
						CHANNELS 6 Xposition Yposition Zposition Zrotation Yrotation Xrotation
						JOINT RightArm
						{
							OFFSET 0.000000 0.000000 10.434708
							CHANNELS 6 Xposition Yposition Zposition Zrotation Yrotation Xrotation
							JOINT RightForeArm
							{
								OFFSET 0.000000 0.000002 29.628418
								CHANNELS 6 Xposition Yposition Zposition Zrotation Yrotation Xrotation
								JOINT RightHand
								{
									OFFSET 0.000000 0.000002 22.857605
									CHANNELS 6 Xposition Yposition Zposition Zrotation Yrotation Xrotation
									JOINT RightHandThumb1
									{
										OFFSET -2.867323 -2.944292 3.959564
										CHANNELS 6 Xposition Yposition Zposition Zrotation Yrotation Xrotation
										JOINT RightHandThumb2
										{
											OFFSET 0.000000 0.000000 3.350403
											CHANNELS 6 Xposition Yposition Zposition Zrotation Yrotation Xrotation
											JOINT RightHandThumb3
											{
												OFFSET 0.000000 0.000000 3.756516
												CHANNELS 6 Xposition Yposition Zposition Zrotation Yrotation Xrotation
												JOINT RightHandThumb4
												{
													OFFSET 0.000000 0.000000 3.147339
													CHANNELS 6 Xposition Yposition Zposition Zrotation Yrotation Xrotation
													End Site
													{
														OFFSET 0.000000 0.000000 0.100006
													}
												}
											}
										}
									}
									JOINT RightHandIndex1
									{
										OFFSET -0.086752 -2.345282 10.030899
										CHANNELS 6 Xposition Yposition Zposition Zrotation Yrotation Xrotation
										JOINT RightHandIndex2
										{
											OFFSET 0.000000 0.000000 4.061096
											CHANNELS 6 Xposition Yposition Zposition Zrotation Yrotation Xrotation
											JOINT RightHandIndex3
											{
												OFFSET 0.000000 0.000000 3.248871
												CHANNELS 6 Xposition Yposition Zposition Zrotation Yrotation Xrotation
												JOINT RightHandIndex4
												{
													OFFSET 0.000000 0.000000 2.639709
													CHANNELS 6 Xposition Yposition Zposition Zrotation Yrotation Xrotation
													End Site
													{
														OFFSET 0.000000 0.000000 0.100006
													}
												}
											}
										}
									}
									JOINT RightHandMiddle1
									{
										OFFSET 0.104101 -0.006767 9.502945
										CHANNELS 6 Xposition Yposition Zposition Zrotation Yrotation Xrotation
										JOINT RightHandMiddle2
										{
											OFFSET 0.000000 0.000002 4.568726
											CHANNELS 6 Xposition Yposition Zposition Zrotation Yrotation Xrotation
											JOINT RightHandMiddle3
											{
												OFFSET 0.000000 0.000000 3.654984
												CHANNELS 6 Xposition Yposition Zposition Zrotation Yrotation Xrotation
												JOINT RightHandMiddle4
												{
													OFFSET 0.000000 0.000000 2.741241
													CHANNELS 6 Xposition Yposition Zposition Zrotation Yrotation Xrotation
													End Site
													{
														OFFSET 0.000000 0.000000 0.100006
													}
												}
											}
										}
									}
									JOINT RightHandRing1
									{
										OFFSET 0.086752 2.267443 8.921707
										CHANNELS 6 Xposition Yposition Zposition Zrotation Yrotation Xrotation
										JOINT RightHandRing2
										{
											OFFSET 0.000000 0.000002 4.061096
											CHANNELS 6 Xposition Yposition Zposition Zrotation Yrotation Xrotation
											JOINT RightHandRing3
											{
												OFFSET 0.000000 0.000000 3.654984
												CHANNELS 6 Xposition Yposition Zposition Zrotation Yrotation Xrotation
												JOINT RightHandRing4
												{
													OFFSET 0.000000 0.000000 2.741241
													CHANNELS 6 Xposition Yposition Zposition Zrotation Yrotation Xrotation
													End Site
													{
														OFFSET 0.000000 0.000000 0.100006
													}
												}
											}
										}
									}
									JOINT RightHandPinky1
									{
										OFFSET -0.173504 4.467199 7.976990
										CHANNELS 6 Xposition Yposition Zposition Zrotation Yrotation Xrotation
										JOINT RightHandPinky2
										{
											OFFSET 0.000000 0.000000 3.350403
											CHANNELS 6 Xposition Yposition Zposition Zrotation Yrotation Xrotation
											JOINT RightHandPinky3
											{
												OFFSET 0.000000 0.000002 2.842758
												CHANNELS 6 Xposition Yposition Zposition Zrotation Yrotation Xrotation
												JOINT RightHandPinky4
												{
													OFFSET 0.000000 0.000000 2.639709
													CHANNELS 6 Xposition Yposition Zposition Zrotation Yrotation Xrotation
													End Site
													{
														OFFSET 0.000000 0.000000 0.100006
													}
												}
											}
										}
									}
									JOINT RightForeArmEnd
									{
										OFFSET 0.000000 0.000000 0.000000
										CHANNELS 6 Xposition Yposition Zposition Zrotation Yrotation Xrotation
										End Site
										{
											OFFSET 0.000000 0.000000 0.100006
										}
									}
								}
								JOINT RightArmEnd
								{
									OFFSET 0.000000 0.000000 0.000000
									CHANNELS 6 Xposition Yposition Zposition Zrotation Yrotation Xrotation
									End Site
									{
										OFFSET 0.000000 0.000000 0.100006
									}
								}
							}
						}
					}
					JOINT LeftShoulder
					{
						OFFSET 2.625389 0.000002 11.175217
						CHANNELS 6 Xposition Yposition Zposition Zrotation Yrotation Xrotation
						JOINT LeftArm
						{
							OFFSET 0.000000 0.000000 10.813629
							CHANNELS 6 Xposition Yposition Zposition Zrotation Yrotation Xrotation
							JOINT LeftForeArm
							{
								OFFSET 0.000000 0.000002 28.724777
								CHANNELS 6 Xposition Yposition Zposition Zrotation Yrotation Xrotation
								JOINT LeftHand
								{
									OFFSET 0.644384 0.328873 25.716171
									CHANNELS 6 Xposition Yposition Zposition Zrotation Yrotation Xrotation
									JOINT LeftHandThumb1
									{
										OFFSET 2.867323 -2.944290 3.959564
										CHANNELS 6 Xposition Yposition Zposition Zrotation Yrotation Xrotation
										JOINT LeftHandThumb2
										{
											OFFSET 0.000000 0.000000 3.350403
											CHANNELS 6 Xposition Yposition Zposition Zrotation Yrotation Xrotation
											JOINT LeftHandThumb3
											{
												OFFSET 0.000000 0.000000 3.756516
												CHANNELS 6 Xposition Yposition Zposition Zrotation Yrotation Xrotation
												JOINT LeftHandThumb4
												{
													OFFSET 0.000000 0.000000 3.100006
													CHANNELS 6 Xposition Yposition Zposition Zrotation Yrotation Xrotation
													End Site
													{
														OFFSET 0.000000 0.000000 0.100006
													}
												}
											}
										}
									}
									JOINT LeftHandIndex1
									{
										OFFSET 0.086752 -2.345280 10.030899
										CHANNELS 6 Xposition Yposition Zposition Zrotation Yrotation Xrotation
										JOINT LeftHandIndex2
										{
											OFFSET 0.000000 0.000000 4.061096
											CHANNELS 6 Xposition Yposition Zposition Zrotation Yrotation Xrotation
											JOINT LeftHandIndex3
											{
												OFFSET 0.000000 0.000000 3.248871
												CHANNELS 6 Xposition Yposition Zposition Zrotation Yrotation Xrotation
												JOINT LeftHandIndex4
												{
													OFFSET 0.000000 0.000000 2.639709
													CHANNELS 6 Xposition Yposition Zposition Zrotation Yrotation Xrotation
													End Site
													{
														OFFSET 0.000000 0.000000 0.100006
													}
												}
											}
										}
									}
									JOINT LeftHandMiddle1
									{
										OFFSET -0.104101 -0.006765 9.502945
										CHANNELS 6 Xposition Yposition Zposition Zrotation Yrotation Xrotation
										JOINT LeftHandMiddle2
										{
											OFFSET 0.000000 0.000000 4.568726
											CHANNELS 6 Xposition Yposition Zposition Zrotation Yrotation Xrotation
											JOINT LeftHandMiddle3
											{
												OFFSET 0.000000 0.000000 3.654984
												CHANNELS 6 Xposition Yposition Zposition Zrotation Yrotation Xrotation
												JOINT LeftHandMiddle4
												{
													OFFSET 0.000000 0.000000 2.741241
													CHANNELS 6 Xposition Yposition Zposition Zrotation Yrotation Xrotation
													End Site
													{
														OFFSET 0.000000 0.000000 0.100006
													}
												}
											}
										}
									}
									JOINT LeftHandRing1
									{
										OFFSET -0.086752 2.267443 8.921707
										CHANNELS 6 Xposition Yposition Zposition Zrotation Yrotation Xrotation
										JOINT LeftHandRing2
										{
											OFFSET 0.000000 0.000002 4.061096
											CHANNELS 6 Xposition Yposition Zposition Zrotation Yrotation Xrotation
											JOINT LeftHandRing3
											{
												OFFSET 0.000000 0.000000 3.654984
												CHANNELS 6 Xposition Yposition Zposition Zrotation Yrotation Xrotation
												JOINT LeftHandRing4
												{
													OFFSET 0.000000 0.000000 2.741241
													CHANNELS 6 Xposition Yposition Zposition Zrotation Yrotation Xrotation
													End Site
													{
														OFFSET 0.000000 0.000000 0.100006
													}
												}
											}
										}
									}
									JOINT LeftHandPinky1
									{
										OFFSET 0.173504 4.467199 7.976990
										CHANNELS 6 Xposition Yposition Zposition Zrotation Yrotation Xrotation
										JOINT LeftHandPinky2
										{
											OFFSET 0.000000 0.000002 3.350403
											CHANNELS 6 Xposition Yposition Zposition Zrotation Yrotation Xrotation
											JOINT LeftHandPinky3
											{
												OFFSET 0.000000 0.000000 2.842758
												CHANNELS 6 Xposition Yposition Zposition Zrotation Yrotation Xrotation
												JOINT LeftHandPinky4
												{
													OFFSET 0.000000 0.000000 2.639709
													CHANNELS 6 Xposition Yposition Zposition Zrotation Yrotation Xrotation
													End Site
													{
														OFFSET 0.000000 0.000000 0.100006
													}
												}
											}
										}
									}
									JOINT LeftForeArmEnd
									{
										OFFSET 0.000000 0.000000 0.000000
										CHANNELS 6 Xposition Yposition Zposition Zrotation Yrotation Xrotation
										End Site
										{
											OFFSET 0.000000 0.000000 0.100006
										}
									}
								}
								JOINT LeftArmEnd
								{
									OFFSET 0.000000 0.000000 0.000000
									CHANNELS 6 Xposition Yposition Zposition Zrotation Yrotation Xrotation
									End Site
									{
										OFFSET 0.000000 0.000000 0.100006
									}
								}
							}
						}
					}
				}
			}
		}
	}
	JOINT RightUpLeg
	{
		OFFSET -11.289944 0.000000 0.000000
		CHANNELS 6 Xposition Yposition Zposition Zrotation Yrotation Xrotation
		JOINT RightLeg
		{
			OFFSET 0.000000 -0.000004 -38.200321
			CHANNELS 6 Xposition Yposition Zposition Zrotation Yrotation Xrotation
			JOINT RightFoot
			{
				OFFSET 0.000000 -0.000004 -39.900856
				CHANNELS 6 Xposition Yposition Zposition Zrotation Yrotation Xrotation
				JOINT RightToeBase
				{
					OFFSET 0.000000 -15.261639 0.000001
					CHANNELS 6 Xposition Yposition Zposition Zrotation Yrotation Xrotation
					JOINT RightToeBaseEnd
					{
						OFFSET 0.000000 -7.370708 0.000000
						CHANNELS 6 Xposition Yposition Zposition Zrotation Yrotation Xrotation
						End Site
						{
							OFFSET 0.000000 0.000000 0.100000
						}
					}
				}
				JOINT RightLegEnd
				{
					OFFSET 0.000000 0.000000 0.000000
					CHANNELS 6 Xposition Yposition Zposition Zrotation Yrotation Xrotation
					End Site
					{
						OFFSET 0.000000 0.000000 0.100000
					}
				}
			}
			JOINT RightUpLegEnd
			{
				OFFSET 0.000000 0.000000 0.000000
				CHANNELS 6 Xposition Yposition Zposition Zrotation Yrotation Xrotation
				End Site
				{
					OFFSET 0.000000 0.000000 0.099998
				}
			}
		}
	}
	JOINT LeftUpLeg
	{
		OFFSET 11.315661 0.000000 0.000000
		CHANNELS 6 Xposition Yposition Zposition Zrotation Yrotation Xrotation
		JOINT LeftLeg
		{
			OFFSET 0.000000 -0.000004 -38.200321
			CHANNELS 6 Xposition Yposition Zposition Zrotation Yrotation Xrotation
			JOINT LeftFoot
			{
				OFFSET 0.000000 -0.000004 -39.900856
				CHANNELS 6 Xposition Yposition Zposition Zrotation Yrotation Xrotation
				JOINT LeftToeBase
				{
					OFFSET 0.000000 -15.261639 0.000001
					CHANNELS 6 Xposition Yposition Zposition Zrotation Yrotation Xrotation
					JOINT LeftToeBaseEnd
					{
						OFFSET 0.000000 -7.539997 0.000000
						CHANNELS 6 Xposition Yposition Zposition Zrotation Yrotation Xrotation
						End Site
						{
							OFFSET 0.000000 0.000000 0.100000
						}
					}
				}
				JOINT LeftLegEnd
				{
					OFFSET 0.000000 0.000000 0.000000
					CHANNELS 6 Xposition Yposition Zposition Zrotation Yrotation Xrotation
					End Site
					{
						OFFSET 0.000000 0.000000 0.100000
					}
				}
			}
			JOINT LeftUpLegEnd
			{
				OFFSET 0.000000 0.000000 0.000000
				CHANNELS 6 Xposition Yposition Zposition Zrotation Yrotation Xrotation
				End Site
				{
					OFFSET 0.000000 0.000000 0.099998
				}
			}
		}
	}
}
MOTION
Frames: 2
Frame Time: 0.016667
19.104313 -2.652166 85.261642 4.663173 -8.077462 -14.962159 -0.000003 2.080106 8.814243 -0.714489 -0.587707 5.818035 -0.000001 0.000000 8.844148 -0.795358 -3.913374 0.753115 -0.000001 0.000009 11.682266 7.984775 11.108107 18.963525 -0.000003 0.000001 11.746700 1.456492 3.612201 4.569927 0.000003 -0.000005 17.658255 8.868825 5.540076 33.266918 -0.000003 -0.000001 5.101519 1.645713 2.631435 2.129704 -0.000001 -0.000006 5.101509 3.677666 0.773501 -27.203067 -0.000004 -0.000001 11.655092 -0.000001 0.000001 -0.000003 -2.625403 0.000003 11.175208 184.730444 -88.160530 -178.089847 -0.000001 -0.000004 10.434716 -39.851022 -39.966490 72.549620 0.000002 -0.000005 29.628422 11.996650 0.072414 134.342731 0.000002 0.000000 22.857578 49.707617 1.814779 -9.233321 -2.867323 -2.944273 3.959537 31.499029 -20.323694 47.017759 -0.000001 0.000004 3.350424 -19.492940 10.426647 -34.046499 0.000004 -0.000009 3.756507 -12.872840 8.506801 -23.212874 -0.000004 0.000008 3.147340 0.000000 0.000002 -0.000000 -0.086754 -2.345275 10.030884 -19.602680 -41.663030 -6.815359 -0.000005 -0.000000 4.061096 -0.595702 -28.298073 4.340414 -0.000009 -0.000001 3.248897 -1.094892 -28.297979 4.339244 -0.000010 0.000006 2.639725 -0.000002 0.000001 -0.000000 0.104097 -0.006747 9.502922 -13.932721 -42.909926 -7.788302 0.000001 -0.000008 4.568732 0.030478 -30.154985 1.745445 0.000000 -0.000001 3.654969 -0.471758 -30.156337 1.741812 -0.000013 -0.000006 2.741241 0.000000 0.000000 -0.000000 0.086728 2.267467 8.921722 -6.284236 -53.157549 -7.787437 -0.000000 -0.000006 4.061102 -0.042629 -38.237475 -2.760780 0.000012 0.000006 3.654986 0.954629 -38.237503 -2.760222 0.000006 0.000000 2.741241 -0.000002 0.000002 0.000001 -0.173500 4.467221 7.976967 7.774603 -61.490233 -18.485644 -0.000007 0.000014 3.350417 2.442545 -44.227923 -10.905961 -0.000028 0.000006 2.842737 4.442354 -44.227947 -10.905778 0.000003 -0.000012 2.639710 0.000001 0.000003 0.000001 -0.000001 0.000016 -0.000013 -0.000001 0.000000 -0.000003 0.000005 -0.000003 -0.000000 -0.000001 0.000002 0.000001 2.625399 -0.000003 11.175203 -4.041593 89.344885 -0.735443 -0.000015 -0.000001 10.813614 64.780164 11.733377 14.216540 -0.000006 -0.000043 28.724781 -7.922128 1.067500 112.271883 0.644379 0.328887 25.716196 25.868976 23.642256 -0.847559 2.867328 -2.944304 3.959581 -31.852744 23.703243 42.323974 -0.000004 0.000001 3.350435 27.020401 -11.066658 -46.082074 -0.000003 0.000009 3.756535 17.853119 -10.075056 -31.395183 -0.000000 -0.000004 3.099991 0.000000 0.000001 0.000000 0.086754 -2.345272 10.030897 2.590791 66.846365 -9.728131 0.000008 -0.000005 4.061080 -3.422716 47.653332 -8.870432 0.000005 -0.000009 3.248870 -3.922689 47.653267 -8.870295 -0.000003 -0.000000 2.639708 -0.000001 -0.000002 0.000001 -0.104087 -0.006758 9.502955 16.876149 68.971940 6.346803 0.000000 0.000004 4.568750 -1.096182 49.371524 -3.500931 -0.000002 0.000003 3.654983 -1.558857 49.372084 -3.435156 -0.000003 0.000002 2.741241 0.000001 0.000002 0.000003 -0.086730 2.267449 8.921708 50.917025 71.479139 46.047903 0.000003 -0.000009 4.061098 1.525223 54.440013 4.918276 0.000008 0.000000 3.654976 2.528007 54.440074 4.915780 -0.000001 0.000003 2.741228 0.000000 -0.000001 -0.000004 0.173487 4.467199 7.976986 69.336536 65.449646 70.408028 -0.000010 -0.000003 3.350403 6.713764 55.548914 16.472731 -0.000015 -0.000005 2.842754 8.697618 55.549905 16.447688 0.000002 0.000003 2.639711 0.000000 0.000001 -0.000003 0.000001 0.000006 -0.000001 -0.000000 0.000001 0.000002 -0.000003 -0.000000 0.000016 0.000000 -0.000001 -0.000002 -11.289940 -0.000013 0.000006 -4.674369 26.064041 3.513677 -0.000000 -0.000013 -38.200321 0.010292 -0.004308 22.579839 0.000005 -0.000003 -39.900852 -20.008348 -11.700114 21.275250 0.000000 -15.261647 0.000004 -1.983112 1.462709 -23.882518 0.000002 -7.370708 0.000000 -0.000002 -0.000001 0.000000 0.000001 -0.000004 -0.000001 -0.000000 -0.000000 0.000001 -0.000001 0.000001 0.000004 0.000000 0.000001 0.000000 11.315661 -0.000017 0.000021 1.921103 13.777907 12.252317 -0.000005 -0.000013 -38.200314 -0.091029 0.042109 14.591757 0.000000 -0.000002 -39.900856 8.196623 -10.331996 13.554692 0.000005 -15.261640 0.000005 0.243966 1.198890 -28.126669 0.000002 -7.539997 -0.000000 -0.000001 0.000000 0.000000 0.000005 -0.000004 0.000000 0.000000 0.000000 -0.000000 0.000001 -0.000004 0.000018 -0.000000 0.000000 0.000002 
19.097771 -2.638138 85.259094 4.688800 -8.090478 -14.962190 0.000002 2.080108 8.814239 -0.716056 -0.589619 5.816448 0.000002 0.000001 8.844141 -0.795742 -3.913800 0.763575 -0.000003 0.000005 11.682255 7.978705 11.101202 18.944959 0.000002 0.000003 11.746701 1.458499 3.613588 4.570730 0.000000 -0.000000 17.658262 8.852817 5.533531 33.258923 0.000000 0.000007 5.101524 1.633578 2.634825 2.127783 0.000005 -0.000001 5.101502 3.679108 0.772542 -27.202921 0.000002 0.000004 11.655090 0.000001 0.000000 -0.000000 -2.625397 0.000002 11.175206 184.733791 -88.159751 -178.094041 -0.000010 -0.000002 10.434713 -39.852497 -39.967747 72.546752 0.000003 -0.000001 29.628439 12.008165 0.072429 134.344452 -0.000008 -0.000002 22.857576 49.714813 1.812586 -9.229404 -2.867317 -2.944265 3.959573 31.499026 -20.323697 47.017769 0.000001 -0.000011 3.350438 -19.492950 10.426641 -34.046536 0.000004 0.000000 3.756514 -12.872829 8.506809 -23.212845 -0.000010 -0.000004 3.147341 -0.000000 0.000003 -0.000002 -0.086748 -2.345273 10.030878 -19.602889 -41.661698 -6.799932 -0.000000 -0.000008 4.061107 -0.596302 -28.297938 4.341152 0.000000 -0.000007 3.248878 -1.095394 -28.297832 4.339898 -0.000008 -0.000009 2.639724 -0.000001 0.000000 0.000001 0.104098 -0.006753 9.502932 -13.933785 -42.912450 -7.774259 0.000003 -0.000012 4.568732 0.029628 -30.156091 1.746382 -0.000004 0.000013 3.654983 -0.472570 -30.157611 1.742536 -0.000004 0.000001 2.741257 0.000000 -0.000001 -0.000001 0.086732 2.267466 8.921724 -6.288331 -53.174665 -7.772570 0.000010 -0.000013 4.061106 -0.041702 -38.248964 -2.761875 -0.000025 -0.000003 3.654983 0.955226 -38.249001 -2.761460 0.000009 -0.000003 2.741243 0.000001 0.000002 -0.000000 -0.173517 4.467215 7.976995 7.780080 -61.519049 -18.486303 -0.000021 0.000027 3.350416 2.447640 -44.246198 -10.913268 -0.000011 0.000002 2.842758 4.447574 -44.246208 -10.912783 0.000003 -0.000002 2.639725 -0.000001 0.000001 0.000000 0.000000 0.000010 -0.000017 -0.000000 0.000000 0.000003 0.000001 0.000000 -0.000015 0.000002 0.000001 0.000000 2.625393 0.000002 11.175202 -3.986884 89.342447 -0.684478 0.000019 0.000001 10.813619 64.788968 11.743178 14.226770 -0.000007 -0.000031 28.724770 -7.924817 1.066940 112.266235 0.644388 0.328877 25.716198 25.917327 23.647370 -0.834733 2.867324 -2.944278 3.959588 -31.852737 23.703248 42.324012 0.000001 0.000010 3.350407 27.020413 -11.066630 -46.082132 0.000001 -0.000003 3.756510 17.853102 -10.075068 -31.395173 -0.000003 0.000000 3.100007 -0.000000 0.000003 -0.000000 0.086762 -2.345273 10.030916 2.582714 66.827636 -9.706852 0.000008 0.000000 4.061086 -3.419307 47.637591 -8.866061 0.000001 0.000000 3.248877 -3.920386 47.637568 -8.866586 0.000004 -0.000000 2.639709 0.000001 0.000002 0.000002 -0.104106 -0.006764 9.502951 16.863848 68.957665 6.364167 -0.000001 -0.000002 4.568743 -1.096082 49.359977 -3.501439 -0.000006 -0.000005 3.654994 -1.559273 49.360452 -3.435474 0.000004 -0.000003 2.741240 0.000001 -0.000001 0.000002 -0.086753 2.267443 8.921728 50.894543 71.473442 46.052865 -0.000014 -0.000005 4.061111 1.524360 54.437017 4.917478 -0.000002 0.000010 3.654967 2.527304 54.437516 4.915167 0.000002 -0.000002 2.741241 0.000001 0.000000 0.000002 0.173504 4.467198 7.977007 69.322745 65.447214 70.415050 -0.000003 -0.000005 3.350402 6.714516 55.548757 16.473774 0.000001 0.000007 2.842758 8.697263 55.549843 16.447060 0.000001 -0.000004 2.639710 0.000000 0.000001 -0.000000 -0.000002 0.000002 0.000015 0.000002 0.000000 0.000000 -0.000009 -0.000004 0.000015 0.000002 0.000001 0.000001 -11.289935 -0.000010 0.000003 -4.675993 26.075550 3.488249 -0.000004 -0.000011 -38.200306 0.015184 -0.006269 22.625760 0.000001 -0.000002 -39.900860 -20.023285 -11.706741 21.257893 -0.000001 -15.261642 0.000004 -1.983501 1.463028 -23.874523 -0.000002 -7.370711 0.000000 -0.000003 -0.000001 0.000000 0.000001 -0.000004 -0.000001 0.000001 -0.000000 -0.000001 -0.000000 -0.000004 0.000000 -0.000000 0.000000 -0.000001 11.315662 -0.000015 0.000004 1.882152 13.798805 12.219624 0.000002 -0.000012 -38.200310 -0.089616 0.042153 14.614976 0.000001 -0.000003 -39.900852 8.212193 -10.325777 13.556794 -0.000005 -15.261644 0.000004 0.242402 1.200385 -28.135860 -0.000001 -7.539997 -0.000001 -0.000000 0.000000 0.000000 -0.000004 -0.000008 0.000001 0.000000 -0.000000 0.000000 0.000000 -0.000003 0.000012 -0.000000 -0.000000 -0.000001 
